<mxfile host="65bd71144e">
    <diagram id="Htrs0spEx80Hu7yArMls" name="Page-1">
        <mxGraphModel dx="1152" dy="787" grid="1" gridSize="10" guides="1" tooltips="1" connect="1" arrows="1" fold="1" page="1" pageScale="1" pageWidth="850" pageHeight="1100" math="0" shadow="0">
            <root>
                <mxCell id="0"/>
                <mxCell id="1" parent="0"/>
                <mxCell id="4" value="" style="edgeStyle=none;html=1;" edge="1" parent="1" source="2" target="3">
                    <mxGeometry relative="1" as="geometry"/>
                </mxCell>
                <mxCell id="2" value="Start" style="ellipse;whiteSpace=wrap;html=1;aspect=fixed;" vertex="1" parent="1">
                    <mxGeometry x="90" y="310" width="80" height="80" as="geometry"/>
                </mxCell>
                <mxCell id="24" value="" style="edgeStyle=none;html=1;" edge="1" parent="1" source="3" target="10">
                    <mxGeometry relative="1" as="geometry"/>
                </mxCell>
                <mxCell id="3" value="Read given &lt;b&gt;bad-image&lt;/b&gt;, &lt;b&gt;bad-checker&lt;/b&gt; and &lt;b&gt;original-checker&lt;/b&gt;" style="rounded=1;whiteSpace=wrap;html=1;" vertex="1" parent="1">
                    <mxGeometry x="210" y="270" width="120" height="60" as="geometry"/>
                </mxCell>
                <mxCell id="12" value="" style="edgeStyle=none;html=1;" edge="1" parent="1" source="10" target="11">
                    <mxGeometry relative="1" as="geometry"/>
                </mxCell>
                <mxCell id="10" value="Get average value from the 10x7 patches by taken the average of the centre 10x10 pixels" style="rounded=1;whiteSpace=wrap;html=1;" vertex="1" parent="1">
                    <mxGeometry x="210" y="360" width="120" height="80" as="geometry"/>
                </mxCell>
                <mxCell id="16" value="" style="edgeStyle=none;html=1;" edge="1" parent="1" source="11" target="14">
                    <mxGeometry relative="1" as="geometry"/>
                </mxCell>
                <mxCell id="11" value="Convert to 70x3 array&lt;br&gt;witht the patches RGB values" style="rounded=1;whiteSpace=wrap;html=1;" vertex="1" parent="1">
                    <mxGeometry x="365" y="370" width="120" height="60" as="geometry"/>
                </mxCell>
                <mxCell id="15" value="" style="edgeStyle=none;html=1;" edge="1" parent="1" source="13" target="14">
                    <mxGeometry relative="1" as="geometry"/>
                </mxCell>
                <mxCell id="13" value="" style="shape=image;verticalLabelPosition=bottom;labelBackgroundColor=default;verticalAlign=top;aspect=fixed;imageAspect=0;image=data:image/png,iVBORw0KGgoAAAANSUhEUgAAAgwAAABVCAYAAAAlmLwZAAAAAXNSR0IArs4c6QAAAARnQU1BAACxjwv8YQUAAAAJcEhZcwAADsMAAA7DAcdvqGQAADt6SURBVHhe7Z0FXJTJG8d/y/bC0ikNEhKCgQG2Yrf+Pc/2vLM7zu4489SzMPC8O7vPOrs9O7ALFRXpWBqW3fnPuyyKioBiHDrfj/MRZt93l31nnpnfzDzzDI9QwGAwGAwGg1EAOtr/GQwGg8FgMN4JEwwMBoPBYDAKhQkGBoPBYDAYhcIEA4PBYDAYjEJhgoHBYDAYDEahMMHAYDAYDAajUJhgYDAYDAaDUShMMDAYDAaDwSgUJhgYDAaDwWAUChMMDAaDwWAwCoUJBgaDwWAwGIXCBAODwWAwGIxCYYKBwWAwGAxGoTDBwGAwGAwGo1CYYGAwGAwGg1EoTDAwGAwGg8EoFCYYGAwGg8H4hsgMP40/Vx7Ek6xsqLV5RYEJBgaDwWAwvnoyEXt3J8a0KgtP/7YYMn4XwjKzQbSvFgUmGBgMBoPB+Jq5vhB1vLxRf+QJWNarBFFMAhIT05D9PmqBwgQDg8FgMBhfM46tMX/jHuwMGofugWUhE3xY188EA4PBYDAYXzN61vDycIGdlQnkEiF42uz3hQkGBoPBYDC+Zng64Ot8qEx4BY9QtD8z/uOoVUpkJCciVanNyEWHD6FEDkNdoTaDwfj4ZGemIi01DZkqbcZLBBDryqArE4OvzSk5ZCM9OQXpGUq8+bUEUjn0pBIIS96XYvznyEJKfDIyVOq3nAxFetyoXwcfoT8vGk+Xwc9rKK5kfY+D0UtRS19SZLtlgqEEoXh0CZvHtcX0f7UZuUjs4NNoFFbNbwwzbRaD8bF5vGce5i9chF0PtBkvcUfbn4diYN/6sNPmlBgSzmDehLlYs/sqkrVZufj8OAejf/wfqlhqMxiMDyVyMzq0nI4LkQoqUV/HfvAObOtZFqayz6RMmWD4Nki4dwarh7XFKnVPzJmYRxzwJdAztYO7g1EJHOExSgrpcc/wPPwF4tO1GZRnh4KwYvUVWP80BeNHt4CTNr/EEHcY4/qNx1FeHXTq2BwV8ihuPUsn2FqZQV+kzWAwPpTsONy/8QSKvHEPqIjo32M5kvofxsnhfrDQ++8LBubDUNLgSaFr6A7fihVRMTeV80IZO0MmFhifFImxNZw989Q7mrycLGEk0V5QgtE1t4eb9+vfzd3WFHImFhgfA4ExSpf1Rfk89auijytkQkHhDohxhzA4oBzcnZ3h/B6p0dJrSH57/bBYMMFQAuHx+BDw+eDnSTqfbQGM8a3C4+lA5616p/PBHtf/Kej3ePO7cU5izKoYHwfe2/VLwImFItQwQ3+MXr8d+w4exMH3SCs6lIGu6OMOI5lgYDAYDAbjvwpfFxb2jnDKZxahoGRrKP7ojpRMMDAYDAaDwSgU5vRYgtA4PQ7vjI36M7F7XTsw5+2SjSrmHk4dPYB9l59rc4qOoXMl1K3fCJUddbU5X4b7G8diwpQ9kHYu2U6P5616YMywH1HbRpvP+I8TjfOr/sSh0GgkvfcyfVm0HNocFSz1IdbmfBGeB6OW33BE9voHJ76E02PK99iTuBT12S6JrxMmGL4uSHYaEuNiEB2b8tZWq+Rb+7D20G2oyrRD/wZvb1YU6RnDzNwChtIvO0nIBAPjy5ANRfgTRCVlQvnWcYs3sKTzKgh6D8P/KtnB+K3wNHJYlraCkVj4ZafYP7NguLd7ItaeVeDJ0c3YfikSaSo5rPwaolV1O1RtPwHtK8hRWMRotiTBYHwheAIpDM1sUdrdHe5vJFcHY+gbCCAztX7rNS452VrAQMLMl/GtIoC+lSOcXd+2DXd3a+iq1DAws0fpfF+3gZHoC4uFL4Bjrf4YMHgUZm48het37+PBg8s4uWkexv88HM28dMEvwgNhLQ6D8cXggaej87rntDYJqNTXoQMObhdCfq/zud0JzIWf8Q3DowaSr23Qno9z9tPhwiEX8Pq3hkhuBnNzS1g7OMO5dGmU5pKjDSwt6OBDWrTdTkwwMBgMBoPBKBQmGBgMBoPBYBQKEwzfBGpkK9OgiI1FrDbFJSiQ9uYhVgwGg8FgvIPXBIMqKx2HR1SEv7//GykANau3weL72guLgioDimu/odlb7+WP2g2aYc557XWMT4YqJRrXd85Gl8Dy8PD0QYXKlVE5N/lVgE/ZcqjctB+mbT6PCCYeik/qPRxY/TMa51Pnc1OjPtOw9opCewOjJHB/62QMbFUl3/LMST3x24HriNZez/gwri3tjvYNq+bzfHPTEGy4+wIp2usZn5/XBIOOQIRyPy3C3Fmj0Vh2GxcuXNCm8/j30lHMW3QQWdprC0OZkYrzv/+CQy/f4yKu3QmDyXdTMXvGFLR1017I+ASokPjoNFYPaIBmfWZi5+UYiD3bYPii1fjrrz8QvHQ6BrZ0gyTiOi4f2oldf+3DvVTtrYwPR2oLv4bdMGpUB1S1VeHpy7p/AfcSxXBuMhhDe3ZAPRc97Q2MkoB19U74aehIdKksR8azqy/L9AIVfqa+rTBgUm80reAIQ+31jA/DqdkwDB8xGG1c0hB+7/Kr53w1C64NemD0Lz1Qw9YYX8HRJSWW1wQD53Vq7OyHSn410K1jVahUqpcpOzMZ0dt/xdYI7cUFQbKQoTiI39dEIfPle/AhFNZGp+7VUc63LOwNtNcyPjoZEbdwdMVQjN1yA+FKc5TrtgSbl/6MTvX8UalSFQTUboHuY4Lw5/rF6OvLo+JOAKlcezPjw9GRwsjSDVXrd0LHFk0R4JBb93Xh6OmP1u2boYa3w+cL0ML4KMjMHOFRpRE6/dAOFT3sIMht09wD0Lh5c7SoRdszEz2wc6qKh9y6DHyrN8OPfdvBxdwQvNznXKEJOrdqhED/MrCSiSHQXs/4/Lzlw8DjCyAQiKBvINPmaCEqpMddxPRVl7UZ70aVkYb7K2Zjd1LemFA86OjowkxfpDk4iZ2V9IlQxyPs3n6sDrqKmFQhrO190eGHhnCzMoaeSEjLVgChSAq5sQ3KlquMeo1qQGrlAHPWh30EuG2SVBhLDGBibARjfW02+JDKpDA0lEIsYNshSxqara9CCfQsrGGklyc6oEQfurp6kIkE4LNCLTac7QhEMhjY2MNQLHklDGTG0NfVhUTI9RvsOX9JCnR6FIhEaNClC6y0v5OsZDxd9Rv2xGkz8oMoka44jaXBoVDV6oRObwSpY8X9iUmOQ/T1sziq4GIH6kEud4GbmySfguaBTwWE1FAOvkAGqTb360UFpTITGRlvxlQsAJUSGempSHmfezRQ4UArel5RzP3O2roCyM5ARmYWst4jzG92RgpS09Lf655ioYl9kbcQuZ+/jUJVpimQkq5E9ltRFd+NMi1NM8P8HrfkQIXD68KAGc5/hQIFA48vgmnDIRhcRZtBxUBa1H5MDrqpzXgbdWYanmydid0p1ug6qCOc2Tzd50WVDVVGEtI1vyiQkHQdV+6+w6PR0BX+XSdj3fT6MNVmfbVEhWDPrz1R94dRWHk5RptZAMpIXNw2G92adMf44AtI1GYzPg2P9s/H8O+bYPTSA3hYBJ/QjNBdmDu4LVqNDMbhB8wB59MSi6O/9ELr5gOw9uxjJBVBP7/YPwntm1VD/z+u4WmSNpNR4ilQMICnA6FRaXQc3JqOVXNQZyXg/spFOJSszXiNbKSnXUDwnNtQ+fVFn8pmbL3ps8Op8dynrkTU7VNYNXwQVlyJoL+9AV8MXSNL2FnJv/5yMimDSjXqICD7AOZPn4GVVwoQDZxY2LkS0yZtRoK1H1q28AFz8fi02NRoiXrexghZMQkL1xxAaAGigRMLC36ZgxXXrBBQrSYqO37982NfFkP4d+8EH1zB7MHTsPUcFQ0FzOpwYqHv5GDccuiE/1V1RKkvez4a4yNSsGCg8AQymNYZjgGe2gySjbTo3Zi5Jkyb8QpuduHF9nlYnyhG6/6d4CRmU0mfHX0DGLmXRXntr6rMRDw4sRbjW9eCX+W66DRiPnb9exsR31oQBoEUVuXboG//gWjCP4QF03/JXzQoozRiYfrErcgo1x4jp/yEKrTF+/wuHtwncqvl34bkFum7oP7A8ejTzBZ3gidj4R/5i4aM0N1YOJOKhRtO6EjLsndTdxiLC23GGMVCALlDPYxcPA4N5SGYO2Q6tr1DNEQcmIx+VCzcKTMIcwZ1RA0XQ4i+gH8Ud96UWEQ7ONYFfVSKYGk6EBl6offwVppCoIoB2RnxuLpgPg69tscyGxmp5xE07SKyfIdiaD39kt/UKVMQe2Mrpo8ZgzHFTRNmYuG6a59+altgDgfPJujaIdd5hJYXt8Ml7D6uXz6FHSuno8/3TVGjQhVUbz4Eiw7dw7cSFUBHrAe7yt+j34BBaKwVDavyigYqFi79nSMW0nypWJjWBwH2hvgS/ZGeRwsMGjYOI5qXuPMfPxABZCbuaDSMioamNri96m3RkCsWll93Qof+g9C/lRfMdYVshftzoCOBqUt9jFk2gYqGa/mKBk4s9J28CrepWJg7uDMCPcwgKez4w09CeQzasQa9ajjC6K2TKhnFIf/jrbPTkbSrE0w7H0anvxVYXVeNzJjzmFTHHzNvcRfwINAthcCVF7Hv+xyXSHVWMkI3dkK1ARfQ7M+7CGqhB2V8COZVroDxD7krJDC06ILtkctRW3NHftDOLUuBe8c2YfPGvTh8PwIJCamapREdiRks7F3hXysQzVo2hK/dG9uYiBIZ8XdxbPNmbPrnKB5EJEBzK58PqZkl7F39Ubt+M7RoUBa2ukV0rMhORezt/Vi2fDdCi7lMypeawDnge/TqVBEm2rz3pajHW6uzUxBxaz+CZ03GvA03kf8Sog4EtAM1LFUGAU17YtrMH+DFbYxJjcL9c/9gzZF3R+kS6JrAsUIdBPp7wUb/XRapRlZKFB5cPIQ9f/+D42cfISo5GRn0FR2RCHqWdnD1ronABg1RP8AVFjoKPL58DH/vufrOADgCuRXcqtZHYDU3mBdDjaozUxB2fgOWLv4N+1T1MWTsKPzorc4RCxO2IJWKhVHTiycWnh5YjFljBmDpFe43I1TvOhRTfh2HWsaal78aPv7x1tlIi7uDfXOnImjvc3j+NAkDu9SHddweLPxltmZm4ft+AzGgtffHEQvvc7x17EGM6j0Oy7ZdzLGpysPx55wh6Fy9lOZlIJm2XTtw6N+7ePHO9kIOe79qCKxZHg7Guu8esVHx+vDcMezevR/Hrt/F08gUZGVx7oMSyOUWcPItj1ptWyCwYlnYGUgQeeEv7Dp5B8/fOSLRh2vdRqhXpQxK0fbvg7txdQZiHxzEjD5TcSDFB8Pnj0WbKo5IPTIFfSetxG23gVRMdCmeWIjYiHaNR2H3tTBNe4HAhbiwrCv8nL+yvfif+XjrjwInGN5CmUYU21oToUyfdD+Uk6XOUpB7QfUI7R44gUFoD05MvaeRy5pXlSQ14QQZ6mpCDMtNJVdTubxskhZ3mUwtrb0eEmJo0ZMc1Vz/NqoMBbm/dQip7+VDyjbqQxb8tZ+cvXGH3Lp1i9y8eZ2cP76VLBjSlHibOZHydSaT85naGzWfc5tsGhRIvHx9SZP+v5F1B86SG3du0XtvkhshZ8nRTfPIwMZexMylEmk4/SJ5eWthqFUkOyOJxESEk/DwYqYXkSRWkU7/2g8n/u5pMrepI6nYYROJ0Oblj5qoaBnGh98i5w+sIBO7ViNuJgJtObyReAIisfYn7WadIYncraoskp4YQa4dWEWG1zMlhlbupHLbSWQzfaYhl8+SI5t/JYPaVCSlbRyIR92OZOSWR5pPzItS8Yyc+2scaRfgR2q0HUrmbTxBzl+9Qe7Qsrx16wYJuXSc7F4+gXSr50FKlW9B+qy4TBRqJclQRJOHx9aQqR1diKFxaVKpwRCyYt8pcu7MUbJ94c+kax0PYmnnRKp8N4Asu5ik/bQPgyvXR8eXk2Ft3Yh7/bbkp4GDSEsPHxLYfjo5HBpPMlTaCz+QsP2LSN/yuc/ZiFTvOpUci9O++BVxb8MY8l2ZsqTbjJ0kVJtXfJQkJSaEbBn1P1LXtRLp2K8f6fJddeJUqQsZ88clEpGcRWv4RyL2EBn7XRVSb/BKcvSZNu9dxBwgI9v4Ef1c26k8nPx5Mlz7Ikc2SU+KJGGX/yT9m1Uh1oYmpNL3I8iSv0+RC1cukdO7VtPPqkZ8XOyIs2tjMnnTOfI8Q3vrSxTk+rqppHPdSqRmi/5k5pr95PS1m+Tmbc52blHbOUMOrp9OejfwIe5O5Ujv1afJQ2oKWSlx5MX9v8mkZlWJi5EhcW06hMzacIKcPXeS7Pl9Gulcx5uUdnIkpf36kTXnQkmxrEeVRmLu7CSDa1UgZXy7ksmju5G6frbEtdsssvNaJElXFtN4Xmwg//O1J5Lc5xy4kFx4qGmdvi6erSI1LQ2J28SzJDK5OD3D56PIgoGos0nKi32ki6W2EMEjQrkD6bA9lqgzk0nYxv8RM31j0nJFJMnS3FBUwaAmmUlPyIGfaxJXR1vi23oJOfjoBYlPziDZL1sFNcnOSiOJz2+SU0t/IJ7VFpNQ7jVVBol/sIcMq+5KHB0qkHbLDpHHLxJISkb2qwaF/t1ZqYnk6bVj5LcevqRO0KOP19h8ZoouGHKhgoeWTXxkGAm9E0IuHttOFo/pTALc9LVlok18Q+JZfwjZH6u9jT6h5IdHyYpulgRGHqTm4F0kPC2TKLMySXpKPHl+eTtZ8IMH4QkNiFezwWRHnoY2M+o62T2zNfFyr0wa9V5FTj+IIHHJ9F7Vq6euVlFxkBRH7hxYSUZ0b0o6rbytFVK0nJ+fIutG+FFB6khqtltMQtIySGZmBklJiCbXd/9GelcREIF+WdJy2HYSprnnw8nOSCCPjiwkQ5vZEj1DD1Kn7XSy/yOIBQ4mGIoLFQ2RIWT9oDakmo2c6Ff4noz848LHFQscH1UwcFCxnnWRzGtfg9hAQGqOWUNOUVWQpcwiGakKEv3sFJnfKYA4ScXEqNZYsv3CC2qlWtKekF0zupA6Ls4kcMAisutiGIlNSidZb9hOZmo8ibyzlgys2YqMCz5JnqRpX8t+Sjb3qEXcZSBl+qwkRx4kaWwnVRFLnocEk+5VXYicLyfVJ+wiVyOVOTd9KBrRsIUM9vclzka6xL7DbLL9ykcQCxxMMPxnKfqcEY8PqXFl/Dy4hjaDIDstCkd+WYbL6Q/w+5wjyLLtjBHtzbW+DkVDnaFA6LZh6LHqKmL1W2DqvM6o6WgFIz0x+C/nG3ngC6UwsLCFY3kPGFmYQo+nQlrcPWz9uTd+v5kI45ZTMbtTDThYGUJXzH81VUn/bqHMAJZ2DihXxgjmJrrf0JqnDvgiPfq87ODk7o3y1Rqhy7DZWL9rP3Yu7Qe/XOdyVRIS4u/h5jPt79zz5gsgEgs0z48vkkAqFUEgFEGia4RSZf1QpWF9lFcmIer5XVx7pF30SLqPczvnYMiiEEg8m2P4qO9QydkSxnr03jzeRzwdAcRyY9g42KKctzls7cy0ToU5nysUcjVIRxNATCoVQyQSQ9fQDGV8fFClsheyUxOQEPEUcTl7Rz8Yvk4mYiKjcOtyBFISnyA0IYwm1efxWUgIxZkdQfn7u2jTpLlB2Hr6LqJTC9rHxgVUC8WFXYsx7qc2CPTzQzlPT3jSVLZiRdRo3h69J63ArvOPkJCpAtKe4ereNZiTz+flpsm//o7dV54i8XPFN8gXAfgpj3E/8jFuRyQj+eEtxEZFI0X9X/dZ4EGH2omIT+2G/iYQSyCWiCEUCCGW6cPMpjKaNCwLJ3sBEi5dw4PwKO2SYTIurJqGxcF/I7J8R/TuRsvS1xYmcgmEb9iOSGYEC1c3WJuUgbOxHvS0sZJ5fDHEQvq5tP7yxWJIxfTvoLYj0zeBtWdd1HOzhKUoGaHh0UhKK2qQ/3egI4XyyWXcSHiGsIRUvLgQgpiUNCh5n8N4EnFt50LMmpx//c1Jc7Dm8DXE0O/JqY53kvUcN/atxJT+7dCgrh/KlvXS2I6npx8CApqj25DpWHv+LqJSsqGmb/To0K+YOSW/z8tNc7Hp0hMkKlUFf24J5b1KV0ckh0PHweikXTynI3wk3FyEGX2mYVmoGgEDB6Ki/D3MmWQhJfYkfp3wD6JVclQf0B/17OXvDrHK14WZdwcsm1YXxlRoRJ5cgCkHYgCD6ujfpzbsaMf0Lrj173IdFmFSrQ/1ICghKBWIuHYMW1adxlNtVg60IRNIIDe2hJ1LJTRs3hnDBtTUOqaqoVZnI7OI8Yl4tPETyfQgo02iRKILI2Nu31QGnt+6hJ1LdiBa1xrlW7WDv60ehAVUB5ldZTRoPwa9KhtpcwqGq6yaRL+DiasXrF+G3PsAlFG4vCsYM2fth7r2OPy5fhrayM9i6cyZWH01VnvRJ0RuA58ajdHEQ4TwYyuwbN0R3Ewwh39gS3zXqiGqOvPx5FAQRndqivpdx2DZsbdjsmdF38LeeQPRrnk3TNmVALumQzFz5e9Yt3kzNm/egD8WzUC/6qaIoI3cgFGzsfzgQ6RJLDR+II0r6SH+2gYsW7EHV1/I4FW3GZrVrwYvWSwub5mNvm3roc2Qefj7Xpr20z4vGY/2YvGcX7HhmRf6LN6AJd1dELr2Fyz+8xBy9WnJRAhdOhgSimhNtrCEXC+nvcu+uw2/7zuBM1FuqNuwLip6WEAiKMB4dNzw/ZQf0bC6C/SL0uTy6QCP2rdabQxfdypEDIt3IkPEwWkYMG0dIiuNwJ+7V+BH69tYOPwXbL8YhuRPLjTlcK3VFm0DS+HugW0IXrYKZ5NM4F2nBdq0a40G5Uoh6dLvmNG7NapV7ITlF57ls6MjAecXDkCjGs0x5K8wmNcdgOm/rcGGjZuo7WzGut/nYmwPD2ScDsaEjj/gt3MRUCgB68od0aGtN5L+2Yw/gpZhd5gBXKq3RJuW9VHRRo0b+5dgZPtAVKk1EUciFEU+e6mk8H5ykCeA1Kw6Bg+qrM0gUGbE4MCuo0iTt8aA9vbvFU+dZKUh8fgabApXQSr3R5t6zpAUVPnpaFcks4SHqzGUyfE48ddWvFDrwSCgFeo4SwocefAEdJRqWQYuJu/hWJIWhYebB8LLy+sjpAA0/W4pND6jnxJVKiJCL2L732fxzkgD9DmKjSxg4+ECM02GDHpSGzi9y4vyDbLjovEs5BJC9Bxg69kc9V3oM017jkd3DmLXHTWsSrmgVoADJIXULh2JAYwsHWGrX4QyUcbj9tWz+PtIAu1oG6H7/6rC5P1q7yu0YmHGlK1IKdsOP08ZSA2+O/r164kG2Xsxd/JkrDj7iUUDrY96xjYo42oLK6phE7P1YOpSHpWr+sLTtzLq/m8gJo76CY29Vbix909s274FJ/N4g6Y/OoLgmUMwfE0ozOsPwqRxvfFdYCX4+njCQzNC8oZvpVpo9uN4jO/TFjWcebTxEtMyEUFmZAU3dyeY004jMZEPM9syqBRQARWq1kazPpMx6seGqCB7hFMb/sGxI5cRpf3Mz0Xm431YPHs2Vt2wR7u+A9CvYwt0HjkBP9W3RMji8ZgTfAB3S6xoiMbNi08QHa6Gb6NKKONiBSmycf3oEdy6+wSZrgGoWNoJloUZD/Rg7W4PcyrWizKjm3RqE/6+Ew5+7V7oWscLjgYfajxULByajgFTVuBu6X6YMagrWgR+j8nLRqOe5CJm952ETecfQ/FJRQMfMsNScKzgCQduoJOogIG3PypWKIeyXj6o0qgTxq6Yj/+VIoh9uAcTf9mLsMjkVyP+1Hv4c1A79J6zD8LGYzF1Yj+0b1AF5Tyo3XCJ2o9PRX/UbTcc84KHoQK1TUPasenQRybWt4CtWyV4GiqRmZIIMf25ul9ZlPWtggYdhmLx8v5wSYvF4/NLsGDPCyjS3jvO5X+a96w1dJQqooqqwyC01EZyIoQgi5ZEpWHDULMoDX8esjMzcf/0MSRTISI094CXdVFc37kzKbKRnn4f/55IBk8khoW7J6yL8tHcbouiqPFcJEawrtMfK5cswZLipqVzaaP+MbzIC0GtQnZaDGLiHuF5AX2eOjUFKU8fQXOJXilYeASiWqGCQY20uJvY++dMTA1+DJ9WvTFpdCuUpiP9rMQ4hN+7iTCVHnRltBPUL1pZ8t5VJuokRLy4igNH/sH2dQsxrHdvDF99G+7dF2EVHVXXceXmNz4AKhau7M4RC0ne3+HnyT1RzcEIMqkB7Kt1pKKhLxqSg5g/czJWnvvEooF+d4FQAJGQfhMdagNiCSQSbumHm0Y2g4N/TVSvXAkuVJQ/ehKKB7mu9zH/Ysua+fhlczRK1/0fevdsAl97MxjIhHnONKDPls+JAws4l7aGj7clLCyMcgyeXiMQ5pwrwjW+IpFI87kisRRyEytUrFIBHmWcoEyMRGx0FJIyuZs+DxqxMCtHLPyvz0D0aeEDS7kUehYeaD50PH5qYoPbQROxgIqGeyVMNGQnh+L4gnGYt/k2hE1GYUKPJqhsLaUl9Rw3L0Uh6oUS+qUsYKyvW4SBF20H+Zzt5N+gRd2+jrPHj+DAliBM6NsWXWdegXXHWVg1fxCaeFlA+oF6gRMLA/OIhUAvc8jEejBza4JxQVQ06F3Fr/2nYAsVDQUFdyo+9PuLxRDTXpz7KgKpFBJajzVLP3qGsHKohe9au8PYUIXoo//iniIFOdU4AUen98evG/8FaTEKY7sEws/VCoYa29FcoIGnw72PKay9PFFKzx2u5sKX8SR4fAmkQmpf9Ge+REq/vxBCkQS6huawL98MzUrrQsZLxK0n0chSftF1vY9OgdWG23CZnPLGpArt3HXN6mBYv9xITiJI5a3Qv5vrG+cREKjUcQgr4HRLtVqNuGgFfeq0sKydYVmUPkaDmr53PGLorQJaitZOFh/WeRQGHY1JTUrT0VcAAoqb/Lm15VKf/syGrDRkxNzCxbBL2PDXhfxjLKiS8OT2Gaxffw5KOuos5eKDVj82gdU7nn/q82vYNqUp/P0ro1qLodgYWR3DgtZi9aweqO4g14xwVJnpSE+MoWMlakxiY5gVdwcU1xBwTrnJGSACOSzMpUh5dBSrFk7E2BmrceTpBzgwKKOpWFhNxcI2KLy4mYUcsZAzmONR4zekoqET+vfvh4bgRMNUrPog0aDSNBQZxexoeRoBwZ3zQW1OTxdyfa72pODW0aPYv+EY0u194N+wAXws6RX59xsa9L1aoWO7HmjhUbR4lZwHEPdI+NZ0pGvvCLP3mTYsBpxYWDJ7NlZet0Hb3gPRtyUVC3panwXa7uhZeqL58PHo2aQUbi+jouH3g59XNGSkIEOZSev4e5B8C+sn9Udr/wqoVP0HBN23xf8WrMGKGf3QwNMKUk3BJSExJRMZtKk1K2VIy7r4BzgLaPubmZ6ONJ4hLEylyHhyHrsWjMTQyX/gSGhsznbF94QTC4OoWLjj1BvTB3XRiAWpUNuF6MioaGiKsUFjtKJhKrZcePJhoiE1EWkqJbWi4iCm9iIGn1MBdnYwoGKC6yOUV1di1q6ruJNWBe3b14G7jRwF7v7U8cWA3wciwM4YogJs7CV8AiXXZRJzBPjaQML5gX1F5Puo1OoMhN1/AJUqGxfPXHpjHYZrWI3g3WsoWtCegk+Vnc+QYahvkOfB0IZenZ6AqAeXcOHlEqiSNqKXcfh8JPJqEBXnSZKthPphaM5ot0hwk0sqqOh/StowP3xU0GlYxYSOAvl0JMaNxoqb+J8h7FhmWhqinz1GctQN7J3bAy07j8EfJ8MQy0V2VKuQHnsPx9dOxrABk7DjoZIaeQ10GTsDP/jK3ym6JOZ2KFO5FpwTriDk8gOEhwPeNcvB2crw5bIDN9NE6PvTgkd6Zizi3tCZ748MJnRUWa1OXQQ2ao0fh/6C1ctnY2AgD2fX/4rZU37B7tedNAqGioWre3JmFhSe/8PIqb2o2MkVC7loRUP1zhhARUN99X78+t6igYqF1Cd4cO8u7j7WZtEOIez5Y1y5GY3U9zjIKuvpYzx4eBcPjMvB27s6KtnSP1ZxC5dunMXJJ0K4ubmhoo9VoQ0ZX9cClpbWsNAtqGXUkhmOU8f+xembOqjXvBla1fYs2hp5MckRC3OwIoSKhT6D0a9VHrGQi1Y0tBgxEb2alsKtJRM+m2jIzkhG+M1LeBYVrj2nhfL4Ou7TdusFta13TjzLnFC3jjMtozjcun4Wd4gpHN3LwtPaCLLczpbzIaJtGteqRdEBVGrqh3Tnr2Po7A6/6jVRt35jdBgwC0E712B4gBESj8xG36HBOHIj6r3W1zViYepK3KZiYdrgbqjPzVK8/Pu1UNFg7t5UO9NwJWem4T1FgzItEY8vn8GLZMUrYXb7X4Q8eYGE93IkDMeFY4+RkiRAwPe14GjKBRJU4tyOHbj/IhGkfCPUsDOFXkFKW4MBnMo7wliaIzgKI2HvUqx9qoR12zHo628B/a8s2vFrJa7KTMPhId7wKR+AVvPvgSjTEb66I8qX80PV8ee0V1F4QuhaNESv9jYQi2uiWzc32rxrUaYi4cBglK1YHY06zMfdlyVMOyvFTSxvXwvVa9XG1Au0IePzYelsS+0lG9mJ9xEar720UAQQCizgbENvzVIi8cEjJGhf+dYRGFihTM3v0bGCOVQRt3Fm+zKM6hKI6n600ynrg4rVmqDrqNU4FSVHwE8L8MeWVRjWqDSMChhF8kVGcKnaGt0H90U5nXBcPrUJs5ZcRN7jRCQSPRgbc1FvkpBEO8wn+c4sZSD82l781r8T+owci7Fjx2L0sP7oO2Is5h2hKuQ1uF0SEujp60Nf3xDGZqXg4lcfjeu3RC1pFC78ex57jt7TXlsEUmMREZkG3SqdMWZKz3zEQi6vRMPAocPRzoWHJ6FU5GpfLZDUe9gbNBz1KjVC79kbceVlz6LCi3PbMatrDdTtORErLxYWW1MFxdMT+H3JAqw5qkLDH/tiIL3Xhgr09IhnCHsSikhiDCO5JUx1i9CM8biln5wTNN9CHYuHDy/h4NE92LB8Onr3GIBfT/HRZMQSzBvVDhVs8zvp9OOT8OwBonTLodOgYfmLhVzyiIaBHXwhSX2GiITid7AF8WDTePRuXhl1eq3AoZCEV51W7GkEjeuC2n5dsWDPlfx9hvhSmFfqhpG9G6OKuwT3Ns9F8L5/cee1AEvGKGUmgVyXWg81nERFSv6zGA+3Y/zooegzaITGdsaOHYhu3w1B8NFbiH3jBm6XhK6enNqOPoyo7di7BKDLDw1hb8lD+PF1OHrzMWKK/NgUeHYrFLq1hmDWsG5okJ9YyEUjGppR0TABre3jEUE755QizrSFLOqI1vX80WDY37gdnvbqOUfuw4QezeFfrg/W33peqC0qE29h99g+mHUoFaX7zMecjhVhry+g9ekRzh+PpSJCBSMHW5iIiyICuKUf7vRM7a9v8PwyFe9Hj2D/hgUY2qURuiyJR4MZ67BuVhdUsJQV6PRdEnmt1HVEElQash7rN2zCjsOXcD0kBFeO78KGv9YguJeX9ioOHgQSc9SYsgP7D/yK/+UNu8d54lcZig0bt2DbriO4dP06rmtTyNWLOLZrC/5atRQ/eHCVWgTnypUgpFo3PfM8dp8tqmIQUKHiDL+KtAXNSEX6hb04zxSDBr7MDC71+mH2xoM4d+kU9m1ajilD+qF3z5/w40+9MGD4JCzZcACHj+/FikmdUcfTDqaywroEHoRyO1Rt8j2G9K8MEn4Oh7f8hmWnXw3tdAxNYerig9K0LCOjw3HuypsCgEMEM9cAfDd8Ivo29ITs3lYEbbmAp2ofNPPLcb8sCJ7ACKZWjihtR5CVnIy4FzGviZYCkTuhWrv+mDGpG/wdjd8hFnLRioaq7TFgxCj0b1y6aEtJUnsEtB6C5Ru3Yc/hk7gQ8qruXzl7Eodp3V89qQ9aeuQe5fY68Tf3YsnwRqhSpTICeyzBFb12mLJqFeYNb4XyVrq01nMjsCRkpCRSSUE7A5k+DPN/q6LDHSWcrUR2UhYEesYw08/G85CdWDhjAqat2IPLUZ/HgcGkfEcMGTESfZt6vVss5KIVDY0GTsLIn1qhotWnXTOxDeyFsYs2YeueYzhz4drLMr1+7RyO7t+FrRunokM1Nxhqr38TnsQIXi2HYEDjKnDFE+yeGYz9Z2/hVWtHRb47rdsmOlDfuYDbkS8Qm9+UhU1t9Oo7GCMHVoPw9klsWbYOEQ7l4V7aCYaF9nxC6Lt7w9bIGNKMx3gUk/wevil68Oo4BdMHdkPdMgWIhVw0oqEhBv+2ED3ruYFqoSLh0m4K5gVvwrZ/zuDi5ZBXz/nqGRzYvR2bN4xGQyfz/G0x8SIW9PoeTSqXg1+tQdipqovhG7dixc/tUdHGQLs1NR6xChU4t4JSDqY528aLCbccm5pK+yCBOWxpPxh//TDWT+2PftP+xg1FxvstX5UAXit5zgFN384b3t5vJC9PeNi80TLpCKBrVw5VKzi9PmXJ40NgaP/2e+RJXh5lYE3fjifUg0nVPhjqQ5CZFIMj01cjRPs2BcODxMAMVXsNgjdJR3zkUcz847r2tW8cbieJngmsHN3hXa4yagY2w/fdu6O7JnVFx/atEVitInzKuNAKLi96zAHaSEutyiOwwxD83NIE0Vf3Yd2vk7DxifZ1aSk4etRAs/J8pIY+wu1de3FH+9IrdCCSGcLCwQVONqYw0k1BYroaPF0zmOsXpdGnHVt2GhWX9OP05TC3tng1s1UYfAn0TSxgbVnUcM9UNIjlMDG3hKWRpEjTkVy8fUNu+SafOp+bPJxsYPaOWQF9Jx+UdS8Nw8gruHzuIVKVcnhX9YKdmRzcLjwOolZrEucUmpyp0Gz1Kh76sHH0RfU69dCgaXsMnLAYfy0aimZl4rF/0TjMWbIW/36GbRJCPVNYWljAuKjhnml91DWmZWNmDL3ch/OJkBjbwNEt//LMSc6wNCx4t4KQCtZGA4ajbY3y0Ivei9mz1+PAhXCtI54Qro2bo4yLC2SZV7DzxG3ce56Pjw4VHja2dnCgdUiPZCM1IRk8E0PI9Qr2YXlJeiKSsjOhFLjCwdgA8iJvS+ZDZmaDUqYGkBQmFnKhosHExh7mBlLaWWvzCkFm4QzXMvk939zkCJN3LQ3IPdCmuR3iosNw8/pp3JG5o7y3B1xoGyd86c2ohopzzKM8C49DVlbxvCQ4TD19Ua1mLdRt0BRdRyzBX4d+R0/rRNzdNhrt+mzE3di0dy9XlUCKZ2l0dCLI61r6vlCjl1mUR48xfeGUnYrwkKX4qec2vIwfVAA8oT6sKnTHyF6OdHT0BJeX9kW/nUW589uBR8WDUCzVTuvnJLmeDGKBTtEa5Tehna5pmTr4rscQdLBN0uyBXjFpIc5xEw08MSy9A9Dsp54ox3+OiyfW45ffzuQZRb0ON0VOqw/3k+ZfkUh9hod0BHYk1BhuruXRqIZD0TryEoJAVgp+LX5Apw5t4JJ9B3t3bsUfO+4gbyQEPSoG9fXNqHKIQUxCBCLydd9Jxp1/gjFz0I8YOHocxo0bh9GDeqLnhIXYePlNfwwqMLndEVz9MDCCmaUdPGq2RetqAfBUh+HQ4fM4e5XZVfHhQ9e2BvoO/w7VKxoh/uxyjF+yA6fu5qxNiO2bo0/X2ijvJsTDddOwYucp3E14R1fDrS1xS0yan7WpUNIRcvgYwp9HwsC/JWqWcYB5ceKY/Nfg68KmznDMHlAV9tQ8ri0dhiWnwhD92rKLGRxLCSGmyi7h7hMkZWTm35nfWIWuvQZg2M+jNbYzblw/dGgxHDvux4KOb16D2yWhsR2ajLkAebR97DeoAXT5Cjzeswz7HyUhrfi65D/Dp5XmRUBHaACH+sOwfFE7lE5/iqsbhqF5za6Y/e+zN5xyCNRZiXh0dC3G95+MQ9E6VPk7o9HQpfi1jTNSH13AX0Nbom6PX3H2+RvuPESFjPgHOPTnRAyefuSdhxsx8iEjDVlxudHoaHmJDFA6oDW6DekDbxKOc0e2YnHwec3rAj0bVGnTGxOmdIBz0nnsmDcCfcesxY34t4fB3CBZ+R6jY2XiE5zYEIRf5u5DZpl6VL3/iDq2BY3pSiK0Tpt6okXn9ujQ1g3pd/dg0+b12BHy6iQjvqU9rG1cYENlxP1Hz3DrXn4r5zI4VG2GLkNGomtFA8Sf34Cgfc/AN/KEv3vh21d4IivY2lnB2pwgLTYesbGJr4kWRlFRITkhE5m5e/G5Ex8r/oBRvRujqmMWHu+Yi+CDF3Cb0wwCOTxajMDU3m1RziABu2YMxJA5f+HMszzOfy/hct4hJvJDGYeQP8Zj/PIjeKDbDH36tkZlN5Oief2XIHhSM1T54ReMrGUHg+Q7+GvYQpwIi8pTdx1QvpwuZLo8qK8cwyVFMlLz86J0bo4Jo4ZhYE9vxO3dgjVLNyKzZgt4mxsUYXZSBKNylWEvkUCQdge3orI0SyBfC19cMHC7EIQG9qjeeTa2HF2PCYGGeHZmK+Z0CoRfuXKoVqcO6tSpjZo1/VG+Sj38sOwSzOu3RiVjeitfDCPnWug+ZzMVA2NQRx6Gk5tmomOgH8qVq0bvo/fWroma/hUQ0KAXgkPMUa9FRRQtruC3iTIxHJf/no+Rk+dg8ZYoKhie4eahX9Gvzxys3BqCODqcEcptUbVZBwzuXxWIuIxd8/qg44AFOBRGIDV1R+CPU7Fm8xIMCVDh8sqf0ZqWQe2WPTFu/gqs37IZK6b0x4ARExB8zQj+deuiflX7nHXJ9EhcO7Mfa7aF0PbwGc7vm4G2ftVRk9uWWqsNhq55AOs247Bw+Sz0rO0A3a9rx1IOPBHkLg3QqWs3dKomQeiB1QheHYzDuU6k+m6oUM4XAa46SLx0CddPn0XuqtAr+JAamqOUQ2k4WetBKkhCYpYAErmxZsq/cDKRlUUTFXRyM2OYmRmh+Bv9vgUicHnraszpPQ5/nAnBCzrIubF2IWaMHojFe67gWSLt5MXG8G41DAMaV4KH4Bn2/NIPffotwL7r0cjWd0DVbtPx5/plGNbAHKGbJqJzYA3Ubd0d/aeswOYt67Fi/jj0bPkz/rybBftGndGwrDPMNYWjxJNDwdh46Q6e0B7y4dqx6N62DmrUqYKKVeqi++KzENcYiaAV09C/iTssiuIsWwIRGXqi/dRpaO5aCuqwtRg2aiuuP0ui0k3zKnw7doGLiQmE6acQvDcUcYp8vAxk5nB2dIC9szXE6alISkiByNoScrGwaB1maiwS1CqohT5wNxUVeUmmJJD/8dZfBAJ1dgYUkeEIj41DXFQ4Htx9hnSBADp8AXRLlYabtQWMjIxgbmkBY1nebZxqKNMTERn+ArFxsYgKf6hZAxQI+OALdWFd2hXWFkb0XgtYmBsh760liaIeb10cSHYW0pLjEEONJD0lnTZDnDDj4uAbwJDbrWAi0zjfQZWB5PgIhEUkQ83L6YwsrCxgoNlGRKDKSoMiJhKR0fS9Ip/jRXgCsmRU3cv0oadnBCtzPYhFEnoffV9DIxhya9dqJdIUMXgREYs0jR3zoMPFY6Bvyc1I6Ih1YWBkDBMjecFhc0sQSVf/wNwpP2PqJV/0HDUVc/tVAhctQZX+Amf/molpUxfjRIo32gwai9Ej2sFTlyArNgSb503B1Pn7EOXaEgMmjMGItmWhn/OWr6G4EIRpk8dj7q2qGDx+Eqb2KA+NN1LoNkyZPAkT14vRY+JETBrfDC9Pdk64hNUzJmPykitw+2EcJo39Cf7vCNLx8Y+3/sy8z/HWhaJEanwiFIpEJKVTwZXNzQIIIdGVQt/YDEZybjmQq7cqpEY9R0ScgtZzHkS6ZrC0MoG+LKdDItlpSIiJQkx0LGKjnuBRVCp9ZwnkUjEMzExhoGsAqUxK7UgPRrTzk8tEEPAIMhWReBEVj5SMnO2H3NH+OjRfrSLQEdK/wcgUpsb6Gj+Er8N6/sXoCl2x/MpT1PnjPOa38YUtF6VenYaI/ePQvO/vuBItgUefIOwc1QDOnPelMgFnfuuAjjOPIYJXGr2CtmFCI1eYSvN7Iqcw1L0DVt2LRpNNN7GguQssNOIsHGvqB2DE8TA4TTuLHX38UEqeK8BScXZiLbRdcBXZ1YNwYGUHeFvKXgsK9ZKv5njrL46KKDPTSXJiIknkkkJBktOz8pxe+W40p7mlJ+fcR5MiKZmkZ+U5vbIE8/6nVf4HoK2VMjONpChyyzKZpKTRssxzAt+3jOLKGjK+pTmBYRXSefo/ecpVRdKjLpM/f25F3MRCIvf8jozbeIukcC+pM4niyQmydFAj4mwgJybujcig3/4hoYq3T7yL/XcZGdzAlMC+GRm86jJJ1uaTh1vJ5M5eBPwKpMeUXST3oMaMyBCyeUoXUtHKing2Gkp+P/OcpBVwkN6nO63yM/E+p1V+brjj9bOo7SQrtO2ZgtpOBqFC5Ktoz4rPGTKqfGliRMe9deeeJ48S8jyV9EhyYm4j4mAmJjpG7mTAzgckKj3npcz4m+Tv0Q2JtaGMGNr6kv/NP0AeJGa8OjX0JUfIEDdrIoeItN90n0Rq7yfkOfk90J6YCkEqzTpLwpO0BpIZSf6d15FUtJMRA5+eZMnJcJKcVUBJlcDTKvmTKFrt8B+Cc4gTQCThIt3RJBZDJHj3Xti8cDs9+AIu1G3OvWIxVd/8r0NRZ8Q9w9WDO3BTXA8d2njmjBT/62icG4UQaaIWcmUp0oRCfldI22+F9Be3cGJ3MBYEbcE/x+4jNjkWMXQ0eedBOiA2go2jCXRlJnC0FiIl9g5OnLqI61cu4WGyFNYunnAqZQXXCv7w97GA6tEZ7N+2DRu27sY/J68iLDYW4feu4OimJQhatxcXogzhXaMJWjSsCi8bOfjJoTiw+Q8EbziO54pYhN25gAPbtmBd8AoErfkbZyP0Uem7vhg6sCPqeVlBr4DN5HE3j+LYifsQ+tRGzeruJW+5L/0Rju47hnB5eVT3Lw/H/KZpvhS5tiMSa9sz2g4KcwLAfdvWE4YTQWvw57IgbDx3B1HpSkTduI+n1KaS5e5wNNeHRKoHqzJe0L1xAJfuPMSVk0dxJdQQbhUdYWlWCo5la6BRbTeoHp7GP7v+xra167D7zE3cCI1DVtwtHNi+Bkum/o6j8TK41eIOl2oIXysZRDpZuLd1Iqau/RehiizE3jyJ/fu3Y9PaIPy2aA3+uZsB9+ajMG38D2joYwW5qIC+J+kq1qw8iJSKndDd3/qT7/b5GPyHliQYhfE5liQYnwd1VhqSFPGI45Z+0nL2a+sIaccgM4KxsSGMDLRbOZXJVEhEIiI2FWodEfSMzWFpbkIbF64ZIlCmKxAXFYXomBhEPn+OqPg0QKZHG0x9GBkawtSINnJiKaT63FKOAeRSAXjcKbMxkYiKSUSGZnFXJ2fpB1zEQR0IJHIYmZrC2EAGcSG7oNiSBOPzk4mkyDgoUhRITMvKiRYMEXRpfTUwsYKxnlgb7jkbimcPEZ6QgSw1D2J9a9jaGkGXDlg01kNtK/rFC8TExiE24hEeRCshEMmgzy39WJhDX0LtSCaFXK4PYzNTyMU5SzzpcWEIi0hCZjYXn5N2olwUX2o5KhUBX6wLQxNLmJvoUnFRiKwrgUsSTDCUIJhgYLwLQlSaw9wys5SakOnclmUhd6iUSEDFQCENVzFggoFR4uFsJysD6ZnZ0GgPKie4g+BEIiEVHp/OdkqiYPiK/DcZjG8XTcwNiQx6+gYwMKBJXxcyifCTigUG46uACzYo5g5309qOgT61HdGnFQslFCYYGAwGg8FgFAoTDAwGg8FgMAqFCQYGg8FgMBiFwgQDg8FgMBiMQmGCgcFgMBgMRqEwwVDSUKUhOeIqTh8/juO56dRZXLkXqQnjzGB8KtJiH+PWpTz1jqZTN8MQnqK9oAST+PAerp58/btdexgJRc750wxG8ch6jhtnT+FEnvp1/Mw1xGUpNbEcSgosDkMJQvHoPNaNaY5pZ41hZSHPCezDIbOGZ4O+mD06EGbaLAbjY/PsWBBWrFqNAw+0GZSslHjEJ9ii5cjRGDa4Puy1+SWGuOOY+/MvWHP0KXiGckjznM3l23E8+nVoBh9mVIziErkTw3osxrmYpFcDu2wFXoTHw3HIXuwYUAGmJeBAMCYYShCqzFTEvwhFRLI2IxcdEaSGlnCwMcTXduAz478Dd7hRVFQ0EjO0GS+RwsiSO9hNHyJtTokhOxnR4VGIUaRpTzR8ha6ZLSxNuciA2gwG40PJiseThxFIzs45GCwvEnNnOJnLSkTcByYYGAwGg8FgFArzYWAwGAwGg1EoTDAwGAwGg8EoFCYYGAwGg8FgFAoTDAwGg8FgMAqFCQYGg8FgMBiFwgQDg8FgMBiMQmGCgcFgMBgMRqEwwcBgMBgMBqNQmGBgMBgMBoNRCMD/AcK+CBDC+X8wAAAAAElFTkSuQmCC;" vertex="1" parent="1">
                    <mxGeometry x="286" y="200" width="277.41" height="45" as="geometry"/>
                </mxCell>
                <mxCell id="18" value="" style="edgeStyle=none;html=1;" edge="1" parent="1" source="14" target="17">
                    <mxGeometry relative="1" as="geometry"/>
                </mxCell>
                <mxCell id="14" value="Calculate Colour Correction matrix using formula" style="rounded=1;whiteSpace=wrap;html=1;" vertex="1" parent="1">
                    <mxGeometry x="365" y="270" width="120" height="60" as="geometry"/>
                </mxCell>
                <mxCell id="20" value="" style="edgeStyle=none;html=1;" edge="1" parent="1" source="17" target="19">
                    <mxGeometry relative="1" as="geometry"/>
                </mxCell>
                <mxCell id="17" value="Apply Colour Correction matrix to &lt;b&gt;bad-image&lt;/b&gt;" style="rounded=1;whiteSpace=wrap;html=1;" vertex="1" parent="1">
                    <mxGeometry x="530" y="270" width="120" height="60" as="geometry"/>
                </mxCell>
                <mxCell id="23" value="" style="edgeStyle=none;html=1;" edge="1" parent="1" source="19" target="22">
                    <mxGeometry relative="1" as="geometry"/>
                </mxCell>
                <mxCell id="19" value="Apply Colour Correction matrix to &lt;b&gt;bad-checker&lt;/b&gt;" style="rounded=1;whiteSpace=wrap;html=1;" vertex="1" parent="1">
                    <mxGeometry x="530" y="370" width="120" height="60" as="geometry"/>
                </mxCell>
                <mxCell id="22" value="Return corrected image and checker" style="ellipse;whiteSpace=wrap;html=1;aspect=fixed;" vertex="1" parent="1">
                    <mxGeometry x="690" y="310" width="80" height="80" as="geometry"/>
                </mxCell>
            </root>
        </mxGraphModel>
    </diagram>
</mxfile>